<svg version="1.2" xmlns="http://www.w3.org/2000/svg" viewBox="0 0 974 167" width="974" height="167">
	<style>
		.s0 { fill: #ff387d } 
		.s1 { fill: #ffffff } 
	</style>
	<g id="Background">
		<path id="Path 0" class="s0" d="m506.07 2.75c-1.88 0.96-4.25 2.88-5.25 4.25-1.34 1.84-5.14 21.24-14.37 73.5-7.01 39.67-12.32 72.32-12.04 74 0.29 1.65 1.55 4.32 2.8 5.93 1.26 1.61 3.75 3.52 5.54 4.25 2.66 1.08 43.95 1.32 228.25 1.32 183.72 0 225.6-0.24 228.25-1.32 1.79-0.72 4.23-2.63 5.42-4.25 1.81-2.43 4.34-15.14 14.94-74.93l12.77-72c-3.01-6.1-5.15-8.8-6.7-9.94l-2.83-2.06c-440.97-0.49-453.54-0.41-456.78 1.25z"/>
		<path id="Path 1" fill-rule="evenodd" class="s1" d="m465 22.09c0.82-0.04 3.19 0.37 5.25 0.92 2.23 0.59 4.81 2.31 6.37 4.24 2.22 2.76 2.56 4 2.21 8.25-0.23 2.81-1.31 6.31-2.46 8-1.13 1.65-4.04 4.01-6.46 5.24-2.61 1.32-6.25 2.24-8.91 2.24-2.76 0.01-5.76-0.76-7.75-1.98-1.81-1.11-3.95-3.67-4.82-5.75-0.99-2.37-1.32-4.85-0.88-6.75 0.37-1.65 1.42-4.27 2.32-5.82 0.89-1.55 3.2-3.77 5.13-4.94 1.93-1.16 4.63-2.45 6-2.84 1.38-0.4 3.18-0.76 4-0.81zm-420.98 9.91c9.72 0 12.98 0.31 12.98 1.25 0 0.69-1.12 7.77-2.5 15.75-1.37 7.98-2.72 15.51-3 16.75-0.47 2.12-0.19 2.05 4.75-1.18 2.89-1.89 7.95-4.2 11.25-5.13 4.13-1.17 8.18-1.55 13-1.23 4.22 0.29 8.59 1.28 11 2.5 2.2 1.12 5.46 3.67 7.25 5.66 1.79 2 3.93 5.99 4.76 8.88 0.83 2.89 1.49 7.28 1.47 9.75-0.02 2.47-2.19 16.65-9.61 58.5l-13.19 0.25c-7.25 0.14-13.18-0.09-13.18-0.5-0.01-0.41 1.8-10.88 4-23.25 2.2-12.38 4.01-24.86 4-27.75 0-4.37-0.46-5.73-2.75-8.09-1.59-1.65-4.33-3.12-6.5-3.5-2.06-0.36-5.55-0.21-7.75 0.34-2.2 0.55-5.6 2.46-7.56 4.25-1.96 1.79-4.21 5.05-4.99 7.25-0.78 2.2-3.27 14.35-5.53 27-2.25 12.65-4.28 23.34-4.51 23.75-0.22 0.41-6.03 0.75-12.91 0.75-6.87 0-12.68-0.34-12.9-0.75-0.22-0.41 3.82-24.6 8.98-53.75 5.16-29.15 9.62-54.01 9.92-55.25 0.52-2.19 0.88-2.25 13.52-2.25zm275.03 6c9.69 0 12.95 0.31 12.95 1.25 0 0.69-0.68 5.08-1.5 9.75-0.82 4.67-1.5 8.84-1.5 9.25 0 0.41 3.6 0.75 8 0.75 6.95 0 8 0.23 7.99 1.75 0 0.96-0.79 5.92-3.49 20.28l-8.25-0.02c-7.75-0.01-8.28 0.13-8.74 2.24-0.27 1.24-1.62 8.66-3 16.5-1.38 7.84-2.51 15.37-2.51 16.75 0 1.5 0.8 2.9 2 3.5 1.1 0.55 4.59 1.01 13.5 1.04l-1.73 10.23c-0.95 5.63-1.99 10.91-2.3 11.73-0.5 1.28-2.25 1.38-11.78 0.71-9.13-0.64-12.2-1.28-16.69-3.5-4.39-2.16-5.96-3.62-7.76-7.21-1.65-3.3-2.26-6.24-2.25-11 0-3.58 1.36-13.93 3.01-23 1.65-9.08 3.01-16.84 3-17.25 0-0.41-2.25-0.75-5-0.75-4.65 0-4.97-0.16-4.57-2.25 0.24-1.24 0.93-5.18 1.53-8.75 0.6-3.58 1.3-7.51 1.56-8.75 0.42-1.97 1.1-2.25 5.48-2.25 4.38 0 5.06-0.28 5.48-2.25 0.26-1.24 0.96-5.18 1.55-8.75 0.59-3.58 1.3-7.29 1.58-8.25 0.44-1.55 1.97-1.75 13.44-1.75zm-162.05 20.08c6.17-0.09 10.42 0.47 15.5 2.04 5.69 1.76 7.95 3.12 12.08 7.27 3.58 3.61 5.62 6.73 6.91 10.61 1.18 3.57 1.8 8.3 1.77 13.5-0.03 4.4-0.66 9.8-2.77 16l-57.49 0.5v3c0 1.65 0.61 4.24 1.36 5.75 0.75 1.51 3 3.54 5 4.5 2 0.96 4.88 1.74 6.39 1.73 1.51-0.01 4.66-0.91 7-2 2.34-1.09 4.81-2.88 5.5-3.98 1.16-1.86 2.32-2.01 15.5-2 7.84 0 14.27 0.34 14.29 0.75 0.02 0.41-1.89 3.65-4.25 7.2-2.36 3.55-6.54 8.23-9.29 10.4-2.75 2.17-7.7 5.22-11 6.77-3.3 1.56-9.37 3.34-13.5 3.97-5.73 0.87-9.15 0.86-14.5-0.07-3.85-0.66-9.02-2.17-11.5-3.35-2.47-1.18-6.28-3.95-8.45-6.16-2.17-2.2-4.84-6.04-5.94-8.51-1.34-3.03-2.12-7.44-2.4-13.5-0.29-6.38 0.08-10.9 1.28-15.5 0.93-3.58 2.76-8.75 4.07-11.5 1.31-2.75 4.08-7.08 6.16-9.62 2.08-2.54 6.03-6.31 8.78-8.37 2.75-2.06 7.03-4.63 9.5-5.7 2.48-1.07 6.08-2.32 8-2.78 1.93-0.46 7.33-0.88 12-0.95zm-15.85 26.23c-1.28 1.2-2.97 3.43-3.75 4.94-0.77 1.51-1.4 2.97-1.4 3.25 0 0.28 6.98 0.5 15.5 0.5h15.5c0-3.88-0.7-6.24-1.55-7.75-0.84-1.51-2.42-3.31-3.5-4-1.07-0.69-4.09-1.48-6.7-1.77q-4.75-0.52-8.25 1.06c-1.92 0.87-4.56 2.56-5.85 3.77zm114.85-26.2c3.03-0.07 7.98 0.6 11 1.5 3.81 1.12 6.77 2.89 9.64 5.75 2.86 2.87 4.63 5.83 5.75 9.64 0.9 3.03 1.61 7.53 1.59 10-0.02 2.47-2.19 16.65-9.61 58.5l-13.19 0.25c-7.25 0.14-13.18-0.09-13.18-0.5-0.01-0.41 1.8-10.88 4-23.25 2.2-12.38 4.01-24.86 4-27.75 0-4.37-0.46-5.73-2.75-8.09-1.59-1.65-4.33-3.12-6.5-3.5-2.06-0.36-5.55-0.21-7.75 0.34-2.2 0.55-5.46 2.28-7.25 3.84-1.79 1.56-3.99 4.6-4.9 6.75-0.91 2.15-3.53 14.48-5.83 27.41-2.3 12.93-4.37 23.84-4.6 24.25-0.23 0.41-6.04 0.75-12.92 0.75-6.87 0-12.68-0.34-12.9-0.75-0.21-0.41 2.91-19.43 6.96-42.25 4.04-22.83 7.37-41.61 7.39-41.75 0.03-0.14 6.01-0.26 26.55-0.28l-1.5 9.03 4.25-2.89c2.34-1.6 6.19-3.51 8.56-4.26 2.38-0.75 5.08-1.65 6-1.99 0.93-0.35 4.17-0.68 7.19-0.75zm128.5-0.05c6.85-0.07 8.78 0.31 13.44 2.68 3 1.52 6.37 4.04 9.56 8.46l2.1-9.7 13.2-0.25c10.04-0.19 13.19 0.05 13.17 1-0.01 0.69-3.31 19.7-14.63 83.25l-13.17 0.25c-11.98 0.23-13.17 0.09-13.15-1.5 0.02-0.96 0.35-3.36 1.48-8.9l-4 3.36c-2.2 1.85-6.47 4.31-9.5 5.47-3.85 1.47-7.9 2.12-13.5 2.16-6.44 0.05-9.05-0.42-13.4-2.39-2.97-1.35-6.99-4.25-8.94-6.45-1.95-2.2-4.44-6.03-5.54-8.5-1.4-3.13-2.14-7.4-2.43-14-0.29-6.68 0.07-11.43 1.21-16 0.9-3.58 3.08-9.43 4.84-13 1.77-3.58 5.7-9.14 8.74-12.37 3.03-3.23 7.55-7.04 10.02-8.46 2.48-1.42 6.3-3.14 8.5-3.81 2.2-0.67 7.6-1.26 12-1.3zm-13.29 32.84c-1.77 2.53-3.73 6.85-4.35 9.6-0.62 2.75-0.84 6.69-0.49 8.75 0.38 2.24 2.01 5.26 4.05 7.5 3.33 3.64 3.63 3.75 10.33 3.75 5.84 0 7.53-0.42 11.07-2.75 2.3-1.51 5.3-4.66 6.67-7 1.36-2.34 3-6.95 3.64-10.25 1.05-5.44 0.96-6.44-0.99-10.75-1.18-2.61-3.38-5.52-4.89-6.47-1.51-0.94-4.77-1.87-7.25-2.06-3.45-0.28-5.67 0.27-9.53 2.36-3.08 1.66-6.28 4.5-8.26 7.32zm87.79-31.9c11.72 0 13 0.17 12.99 1.75 0 0.96-3.19 19.75-7.07 41.75-3.89 22-7.26 40.34-7.49 40.75-0.24 0.41-6.05 0.75-12.93 0.75-6.87 0-12.68-0.34-12.9-0.75-0.21-0.41 2.91-19.43 6.96-42.25 4.04-22.83 7.37-41.61 7.39-41.75 0.03-0.14 5.9-0.25 13.05-0.25zm361-35c12.93 0 13 0.01 12.6 2.25-0.22 1.24-4.61 26.21-19.1 108.74l-12.75 0.01c-9.53 0-12.75-0.32-12.76-1.25-0.01-0.69 4.27-25.44 9.5-55 5.23-29.56 9.51-53.98 9.51-54.25 0-0.28 5.85-0.5 13-0.5zm95.05 0c11.86 0 12.91 0.15 12.45 1.75-0.28 0.96-4.34 23.57-9.02 50.25-4.69 26.67-8.96 50.86-10.48 59h-13c-11.87 0-12.96-0.15-12.59-1.75 0.23-0.96 0.73-3.55 1.81-9.75l-4.36 3.94c-2.4 2.17-6.38 4.87-8.86 6-3.59 1.64-6.52 2.06-14.5 2.06-8.28 0-10.69-0.37-14-2.13-2.2-1.17-5.77-4.09-7.94-6.5-2.17-2.4-4.81-6.4-5.88-8.87-1.1-2.54-2.15-7.77-2.41-12-0.3-4.82 0.11-10.18 1.15-15 0.89-4.13 2.77-9.97 4.17-13 1.41-3.03 4.22-7.73 6.24-10.45 2.02-2.72 6.37-6.92 9.67-9.32 3.72-2.71 8.66-5.16 13-6.44 5.18-1.54 8.69-1.95 13.5-1.58 3.61 0.27 8.28 1.39 10.5 2.51 2.2 1.11 5.46 3.66 10.5 9.28l0.96-5.25c0.53-2.89 1.91-10.65 3.06-17.25 1.15-6.6 2.31-12.79 2.59-13.75 0.44-1.55 1.97-1.75 13.44-1.75zm-216.55 26.34c7.55 0.25 10.04 0.79 15.5 3.34 3.58 1.68 8.25 4.8 10.39 6.93 2.14 2.14 5.03 6.36 6.42 9.39 1.69 3.65 2.69 7.85 2.97 12.5 0.24 3.85-0.06 9.7-0.67 13-0.6 3.3-2.65 9.15-4.55 13-2.09 4.25-5.53 9.04-8.75 12.19-2.92 2.86-8.01 6.79-11.31 8.74-3.3 1.95-9.15 4.29-13 5.2-4.84 1.14-9.78 1.51-16 1.21-6.85-0.33-10.32-1.04-14.5-2.96-3.02-1.39-7.23-4.07-9.35-5.95-2.11-1.89-5.16-6.13-6.77-9.43-2.01-4.12-3.12-8.2-3.52-13-0.32-3.85-0.08-9.7 0.54-13 0.62-3.3 2.74-9.38 4.72-13.5 2.38-4.96 5.5-9.39 9.24-13.1 3.1-3.08 8.45-7.01 11.89-8.75 3.44-1.73 8.84-3.82 12-4.63 3.61-0.93 9.1-1.37 14.75-1.18zm98.22-0.24c0.85-0.07 1.1 1.33 0.82 4.65-0.22 2.61-1.22 8.92-4.04 23.29l-6.75-0.02c-3.89-0.01-8.34 0.64-10.5 1.54-2.06 0.86-4.59 2.32-5.61 3.25-1.02 0.93-2.66 3.26-3.66 5.19-0.99 1.92-3.53 13.29-9.48 47h-12.75c-10.67 0-12.75-0.25-12.75-1.5 0-0.82 3.15-19.39 7-41.25 3.85-21.86 7-40.09 7-40.5 0-0.41 5.96-0.76 26.5-0.8l-0.78 3.28c-0.42 1.8-1.05 5.07-2.03 11.27l4.91-4.58c2.69-2.52 6.81-5.56 9.15-6.75 2.34-1.2 5.94-2.57 8-3.07 2.06-0.49 4.3-0.94 4.97-1zm-269.66 0.84l25.44 0.56 0.5 28.16c0.28 15.49 0.73 28.39 1 28.67 0.28 0.28 5.9-12.51 24.5-57.38l27.5 0.05v3c0 1.65 0.68 13.91 1.52 27.25 0.84 13.34 1.62 25.36 1.75 26.71 0.13 1.43 4.88-10.1 22.23-56.98l24.5 0.02-3.75 8.3c-2.06 4.56-10.5 23.45-33.75 75.64l-14.25 0.03c-13.99 0.03-14.26-0.01-14.7-2.22-0.24-1.24-0.99-11.93-1.66-23.75-0.67-11.83-1.48-22.57-1.8-23.88-0.45-1.83-3.15 3.58-22.79 49.38h-28.76l-3.71-38.5c-2.04-21.18-3.72-39.98-3.74-41.78z"/>
		<path id="Path 2" class="s0" d="m687.5 73.1c-1.65 0.52-4.35 1.99-6 3.27-1.65 1.28-4.32 4.76-5.93 7.73-2.2 4.06-3.04 7.14-3.38 12.4-0.34 5.2-0.04 7.84 1.18 10.25 0.9 1.79 3.09 4.18 4.88 5.31 2.43 1.53 4.54 1.97 8.4 1.75 3.77-0.23 6.27-1.11 9.39-3.31 2.48-1.75 5.55-5.3 7.36-8.5 2.77-4.91 3.1-6.38 3.1-13.67 0-7.32-0.26-8.44-2.5-10.88-1.38-1.49-3.96-3.32-5.75-4.08-1.79-0.75-4.26-1.33-5.5-1.28-1.24 0.04-3.6 0.5-5.25 1.01zm179 1.56c-1.65 0.87-4.28 2.76-5.84 4.21-1.56 1.45-3.77 4.43-4.9 6.63-1.23 2.38-2.23 6.63-2.47 10.5-0.32 4.93 0.02 7.34 1.4 10 1.24 2.41 3.37 4.25 6.81 5.91 4.72 2.27 5.31 2.34 10.5 1.09 4.02-0.96 6.66-2.42 9.81-5.41 2.7-2.56 5.04-6.06 6.25-9.34 1.07-2.89 1.94-7.27 1.94-9.75 0-2.47-0.86-6.19-1.9-8.25-1.05-2.06-3.3-4.54-5-5.5-1.9-1.07-5.13-1.73-8.35-1.71-2.89 0.02-6.6 0.75-8.25 1.62z"/>
	</g>
</svg>