<svg xmlns="http://www.w3.org/2000/svg" width="1289" height="191" viewBox="0 0 1289 191" version="1.1"><path d="M 777.519 33.250 C 777.234 34.487, 772.959 58.450, 768.020 86.500 C 763.080 114.550, 758.797 138.512, 758.500 139.750 C 757.962 141.999, 757.968 142, 771.481 142 C 778.916 142, 785 141.651, 785 141.223 C 785 140.796, 789.272 116.384, 794.493 86.973 C 799.714 57.563, 803.989 32.938, 803.993 32.250 C 803.998 31.314, 800.741 31, 791.019 31 C 778.378 31, 778.025 31.059, 777.519 33.250 M 868.593 47.250 C 864.644 70.422, 865.504 68.504, 861.056 64.056 C 856.361 59.361, 849.644 57, 840.978 57 C 821.089 57, 803.705 72.195, 797.978 94.585 C 792.591 115.651, 798.072 133.125, 812.360 140.432 C 817.399 143.009, 819.239 143.399, 826.332 143.394 C 833.104 143.390, 835.518 142.922, 840.458 140.655 C 843.735 139.151, 847.959 136.743, 849.845 135.305 L 853.274 132.689 852.571 137.374 L 851.869 142.059 865.158 141.779 L 878.448 141.500 887.559 90 C 892.570 61.675, 896.989 36.813, 897.380 34.750 L 898.091 31 884.726 31 L 871.362 31 868.593 47.250 M 66 36.820 C 66 41.017, 52.738 111.606, 51.499 114.002 C 48.413 119.969, 38.914 121.571, 35.501 116.698 C 34.676 115.519, 34 112.630, 34 110.277 L 34 106 21.094 106 L 8.188 106 7.509 110.934 C 6.052 121.527, 10.470 132.437, 18.364 137.736 C 25.045 142.222, 29.845 143.274, 41.494 142.810 C 50.231 142.461, 52.338 142.006, 58.107 139.223 C 62.044 137.323, 66.422 134.181, 68.942 131.447 C 76.940 122.770, 78.294 118.322, 85.826 75.967 C 89.589 54.810, 92.490 37.163, 92.274 36.750 C 91.738 35.725, 66 35.793, 66 36.820 M 475.482 40.722 C 476.195 46.823, 483 136.270, 483 139.543 L 483 142 499.250 141.984 L 515.500 141.969 529.499 108.890 C 542.777 77.516, 543.533 76.009, 544.170 79.655 C 544.540 81.770, 545.579 95.650, 546.479 110.500 C 547.379 125.350, 548.323 138.512, 548.576 139.750 C 549.032 141.969, 549.257 142, 564.808 142 L 580.578 142 602.883 90.999 C 615.151 62.949, 625.423 39.099, 625.710 37.999 C 626.215 36.071, 625.739 36, 612.309 36 L 598.385 36 584.444 73.005 C 576.777 93.357, 570.404 109.670, 570.282 109.255 C 570.026 108.382, 566 41.569, 566 38.195 C 566 35.953, 565.956 35.947, 551.336 36.223 L 536.672 36.500 520.862 74 L 505.052 111.500 504.890 98 C 504.802 90.575, 504.452 73.700, 504.114 60.500 L 503.500 36.500 489.212 36.222 L 474.924 35.945 475.482 40.722 M 940.603 39.693 C 938.978 47.537, 923 138.878, 923 140.321 C 923 141.805, 924.480 142, 935.771 142 L 948.542 142 950.790 129.250 C 952.027 122.237, 953.528 113.688, 954.126 110.250 L 955.214 104 968.018 104 C 977.776 104, 982.270 103.549, 986.909 102.105 C 998.686 98.440, 1007.957 90.587, 1012.865 80.120 C 1015.161 75.222, 1015.500 73.215, 1015.500 64.500 C 1015.500 56.925, 1015.083 53.737, 1013.779 51.356 C 1011.209 46.661, 1006.082 41.935, 1001.011 39.588 C 996.840 37.658, 994.413 37.477, 968.842 37.193 L 941.184 36.885 940.603 39.693 M 120.287 58.943 C 100.072 66.351, 86.969 88.357, 88.199 112.831 C 88.689 122.582, 90.792 128.415, 95.924 134.261 C 106.119 145.872, 126.708 146.632, 140.862 135.920 L 145.738 132.229 144.893 135.865 C 143.380 142.372, 142.779 142.084, 157.239 141.779 L 170.479 141.500 177.682 101 C 181.645 78.725, 184.912 59.938, 184.943 59.250 C 184.986 58.311, 181.757 58, 171.969 58 C 162.419 58, 158.833 58.334, 158.547 59.250 C 158.332 59.938, 157.855 62.294, 157.488 64.487 L 156.821 68.474 154.818 65.725 C 153.717 64.213, 150.742 61.761, 148.207 60.276 C 144.266 57.966, 142.289 57.536, 134.549 57.304 C 127.613 57.095, 124.283 57.478, 120.287 58.943 M 235.059 58.650 C 229.827 60.481, 226.543 62.414, 222.683 65.932 L 219.866 68.500 220.562 63.250 L 221.258 58 208.200 58 L 195.142 58 194.090 63.250 C 193.512 66.138, 188.756 93.025, 183.522 123 C 178.288 152.975, 173.771 178.512, 173.484 179.750 C 172.963 181.997, 172.979 182, 186.311 182 L 199.661 182 203.861 158.250 C 206.172 145.188, 208.048 133.868, 208.031 133.097 C 208.014 132.325, 209.596 133.337, 211.547 135.345 C 216.019 139.950, 219.618 141.812, 226.507 143.086 C 236.357 144.907, 248.742 141.274, 258.272 133.768 C 263.523 129.633, 270.537 119.468, 273.413 111.828 C 282.525 87.618, 275.955 64.602, 258.205 58.554 C 252.417 56.582, 240.830 56.630, 235.059 58.650 M 309.287 58.943 C 289.072 66.351, 275.969 88.357, 277.199 112.831 C 277.689 122.582, 279.792 128.415, 284.924 134.261 C 295.119 145.872, 315.708 146.632, 329.862 135.920 L 334.738 132.229 333.893 135.865 C 332.380 142.372, 331.779 142.084, 346.239 141.779 L 359.479 141.500 366.682 101 C 370.645 78.725, 373.912 59.938, 373.943 59.250 C 373.986 58.311, 370.757 58, 360.969 58 C 351.419 58, 347.833 58.334, 347.547 59.250 C 347.332 59.938, 346.855 62.294, 346.488 64.487 L 345.821 68.474 343.818 65.725 C 342.717 64.213, 339.742 61.761, 337.207 60.276 C 333.266 57.966, 331.289 57.536, 323.549 57.304 C 316.613 57.095, 313.283 57.478, 309.287 58.943 M 425.500 58.402 C 421.279 59.741, 415.012 62.917, 411.253 65.623 L 409.005 67.240 409.639 62.620 L 410.272 58 397.207 58 L 384.142 58 383.090 63.250 C 382.511 66.138, 379.307 84.250, 375.969 103.500 C 372.632 122.750, 369.668 139.287, 369.383 140.250 C 368.908 141.856, 369.981 142, 382.433 142 C 389.895 142, 396.001 141.662, 396.002 141.250 C 396.012 137.769, 404.335 94.204, 405.589 91.069 C 409.993 80.063, 424.781 75.627, 432.232 83.078 C 434.607 85.453, 435 86.654, 435 91.531 C 435 96.049, 430.577 123.837, 427.400 139.280 L 426.828 142.059 440.160 141.780 L 453.491 141.500 458.199 115 C 460.788 100.425, 462.928 86.444, 462.953 83.932 C 463.077 71.876, 456.184 61.617, 445.911 58.566 C 439.657 56.709, 431.058 56.640, 425.500 58.402 M 652.265 58.489 C 634.297 63.508, 619.649 78.924, 615.959 96.697 C 614.245 104.953, 615.164 117.345, 617.966 123.770 C 620.887 130.470, 629.146 138.166, 636.253 140.811 C 653.655 147.288, 675.836 142.143, 689.575 128.444 C 700.151 117.900, 704.576 105.939, 703.813 89.968 C 703.122 75.526, 696.877 66.076, 684.120 60.167 C 679.383 57.973, 676.851 57.522, 668 57.295 C 661.069 57.118, 655.721 57.524, 652.265 58.489 M 759.324 58.439 C 754.204 60.040, 748.766 63.334, 743.566 67.983 C 741.235 70.066, 739.896 70.792, 740.280 69.762 C 740.636 68.806, 741.227 65.769, 741.593 63.012 L 742.258 58 729.200 58 L 716.142 58 715.090 63.250 C 714.511 66.138, 711.307 84.250, 707.969 103.500 C 704.632 122.750, 701.668 139.287, 701.383 140.250 C 700.908 141.856, 701.981 142, 714.433 142 C 721.895 142, 728 141.599, 728 141.110 C 728 140.620, 729.768 130.453, 731.929 118.516 C 736.297 94.386, 737.785 90.760, 744.661 87.483 C 746.926 86.403, 751.684 85.466, 756.263 85.197 C 763.178 84.791, 764.077 84.510, 764.482 82.621 C 764.732 81.454, 765.638 76.450, 766.496 71.500 C 767.353 66.550, 768.304 61.263, 768.607 59.750 C 769.107 57.258, 768.894 57.006, 766.329 57.067 C 764.773 57.104, 761.621 57.721, 759.324 58.439 M 961.651 67.643 C 960.647 73.614, 959.584 79.737, 959.288 81.250 L 958.750 84 967.663 84 C 982.917 84, 989.363 78.840, 988.772 67.102 C 988.375 59.230, 985.961 57.690, 973.211 57.178 L 963.476 56.787 961.651 67.643 M 1050.056 58.028 C 1047.612 58.542, 1042.288 60.541, 1038.224 62.471 C 1017.377 72.371, 1005.332 97.918, 1011.584 118.972 C 1016.023 133.918, 1027.246 142.033, 1044.558 142.813 C 1060.897 143.550, 1072.656 139.337, 1083.603 128.826 C 1094.498 118.364, 1099.671 105.148, 1098.795 90.013 C 1097.992 76.156, 1091.530 66.483, 1079.230 60.727 C 1073.810 58.190, 1071.327 57.661, 1063.642 57.402 C 1058.614 57.233, 1052.500 57.515, 1050.056 58.028 M 1155.286 58.451 C 1149.526 60.251, 1143.263 64.057, 1138.603 68.591 L 1134.706 72.382 1135.400 68.441 C 1135.781 66.273, 1136.348 63.038, 1136.658 61.250 L 1137.223 58 1124.111 58 C 1116.900 58, 1111 58.295, 1111 58.655 C 1111 59.016, 1107.850 77.202, 1104 99.070 C 1100.150 120.938, 1097 139.543, 1097 140.415 C 1097 141.779, 1098.782 142, 1109.775 142 L 1122.551 142 1125.908 122.750 C 1127.755 112.162, 1129.880 101.424, 1130.631 98.888 C 1133.507 89.169, 1139.740 85.059, 1151.658 85.022 L 1158.815 85 1160.515 75.250 C 1161.450 69.888, 1162.564 63.835, 1162.990 61.799 C 1164.109 56.459, 1163.084 56.014, 1155.286 58.451 M 1212.500 57.680 C 1206.133 59.107, 1200.349 61.614, 1196.307 64.699 L 1191.715 68.204 1192.392 63.102 L 1193.069 58 1180.034 58 C 1172.865 58, 1167 58.295, 1167 58.655 C 1167 59.016, 1163.850 77.202, 1160 99.070 C 1156.150 120.938, 1153 139.543, 1153 140.415 C 1153 141.779, 1154.784 142, 1165.798 142 L 1178.597 142 1180.899 128.250 C 1187.434 89.205, 1189.056 84.632, 1197.722 80.799 C 1203.683 78.162, 1210.991 78.704, 1214.549 82.046 C 1219.527 86.722, 1219.566 89.305, 1215.046 115.014 C 1212.776 127.931, 1210.681 139.287, 1210.391 140.250 C 1209.909 141.854, 1210.953 142, 1222.914 142 C 1235.630 142, 1235.975 141.943, 1236.462 139.750 C 1239.557 125.831, 1245.319 89.832, 1245.386 83.994 C 1245.544 70.459, 1239.065 61.540, 1226.758 58.347 C 1221.673 57.028, 1216.492 56.786, 1212.500 57.680 M 1053 80.144 C 1043.881 82.816, 1037.875 91.904, 1037.260 103.962 C 1036.801 112.967, 1038.812 117.188, 1044.742 119.665 C 1057.165 124.856, 1070.777 113.239, 1071.720 96.643 C 1072.055 90.745, 1071.775 88.943, 1070.111 86.304 C 1066.436 80.477, 1059.896 78.123, 1053 80.144 M 128.252 82.104 C 120.907 85.740, 116.710 92.167, 115.443 101.721 C 114.571 108.289, 116.194 113.086, 120.596 116.950 C 123.622 119.607, 124.824 120, 129.922 120 C 138.159 120, 144.325 115.851, 148.498 107.500 C 152.140 100.213, 152.659 91.180, 149.696 86.658 C 145.368 80.053, 136.290 78.126, 128.252 82.104 M 228 81.594 C 213.288 87.967, 208.641 112.109, 220.906 118.451 C 224.248 120.180, 231.575 120.492, 235.324 119.067 C 239.590 117.445, 245.233 111.695, 247.649 106.507 C 250.638 100.089, 250.850 90.907, 248.114 86.420 C 244.538 80.555, 235.439 78.372, 228 81.594 M 317.252 82.104 C 309.907 85.740, 305.710 92.167, 304.443 101.721 C 303.571 108.289, 305.194 113.086, 309.596 116.950 C 312.622 119.607, 313.824 120, 318.922 120 C 327.159 120, 333.325 115.851, 337.498 107.500 C 341.140 100.213, 341.659 91.180, 338.696 86.658 C 334.368 80.053, 325.290 78.126, 317.252 82.104 M 654.420 81.885 C 644.516 87.925, 639.080 104.043, 643.678 113.734 C 646.840 120.396, 656.175 122.546, 664.115 118.440 C 673.676 113.496, 679.662 97.308, 675.560 87.490 C 672.659 80.546, 661.478 77.582, 654.420 81.885 M 836.252 82.104 C 828.907 85.740, 824.710 92.167, 823.443 101.721 C 822.571 108.289, 824.194 113.086, 828.596 116.950 C 831.622 119.607, 832.824 120, 837.922 120 C 846.159 120, 852.325 115.851, 856.498 107.500 C 860.140 100.213, 860.659 91.180, 857.696 86.658 C 853.368 80.053, 844.290 78.126, 836.252 82.104" stroke="none" fill="#fcfbfb" fill-rule="evenodd"/><path d="M 921.142 11.547 C 918.708 14.641, 920.401 6.111, 905.971 88 C 898.510 130.336, 894.120 157.703, 894.476 159.649 C 895.244 163.843, 898.587 167.930, 902.636 169.621 C 907.579 171.687, 1247.439 171.679, 1252.383 169.613 C 1259.230 166.752, 1258.914 167.982, 1272.498 91.401 C 1280.200 47.985, 1284.857 19.279, 1284.511 17.351 C 1284.201 15.620, 1283.027 13.032, 1281.901 11.601 L 1279.855 9 1101.500 9 L 923.145 9 921.142 11.547 M 940.603 39.693 C 938.978 47.537, 923 138.878, 923 140.321 C 923 141.805, 924.480 142, 935.771 142 L 948.542 142 950.790 129.250 C 952.027 122.237, 953.528 113.688, 954.126 110.250 L 955.214 104 968.018 104 C 977.776 104, 982.270 103.549, 986.909 102.105 C 998.686 98.440, 1007.957 90.587, 1012.865 80.120 C 1015.161 75.222, 1015.500 73.215, 1015.500 64.500 C 1015.500 56.925, 1015.083 53.737, 1013.779 51.356 C 1011.209 46.661, 1006.082 41.935, 1001.011 39.588 C 996.840 37.658, 994.413 37.477, 968.842 37.193 L 941.184 36.885 940.603 39.693 M 961.651 67.643 C 960.647 73.614, 959.584 79.737, 959.288 81.250 L 958.750 84 967.663 84 C 982.917 84, 989.363 78.840, 988.772 67.102 C 988.375 59.230, 985.961 57.690, 973.211 57.178 L 963.476 56.787 961.651 67.643 M 1050.056 58.028 C 1047.612 58.542, 1042.288 60.541, 1038.224 62.471 C 1017.377 72.371, 1005.332 97.918, 1011.584 118.972 C 1016.023 133.918, 1027.246 142.033, 1044.558 142.813 C 1060.897 143.550, 1072.656 139.337, 1083.603 128.826 C 1094.498 118.364, 1099.671 105.148, 1098.795 90.013 C 1097.992 76.156, 1091.530 66.483, 1079.230 60.727 C 1073.810 58.190, 1071.327 57.661, 1063.642 57.402 C 1058.614 57.233, 1052.500 57.515, 1050.056 58.028 M 1155.286 58.451 C 1149.526 60.251, 1143.263 64.057, 1138.603 68.591 L 1134.706 72.382 1135.400 68.441 C 1135.781 66.273, 1136.348 63.038, 1136.658 61.250 L 1137.223 58 1124.111 58 C 1116.900 58, 1111 58.295, 1111 58.655 C 1111 59.016, 1107.850 77.202, 1104 99.070 C 1100.150 120.938, 1097 139.543, 1097 140.415 C 1097 141.779, 1098.782 142, 1109.775 142 L 1122.551 142 1125.908 122.750 C 1127.755 112.162, 1129.880 101.424, 1130.631 98.888 C 1133.507 89.169, 1139.740 85.059, 1151.658 85.022 L 1158.815 85 1160.515 75.250 C 1161.450 69.888, 1162.564 63.835, 1162.990 61.799 C 1164.109 56.459, 1163.084 56.014, 1155.286 58.451 M 1212.500 57.680 C 1206.133 59.107, 1200.349 61.614, 1196.307 64.699 L 1191.715 68.204 1192.392 63.102 L 1193.069 58 1180.034 58 C 1172.865 58, 1167 58.295, 1167 58.655 C 1167 59.016, 1163.850 77.202, 1160 99.070 C 1156.150 120.938, 1153 139.543, 1153 140.415 C 1153 141.779, 1154.784 142, 1165.798 142 L 1178.597 142 1180.899 128.250 C 1187.434 89.205, 1189.056 84.632, 1197.722 80.799 C 1203.683 78.162, 1210.991 78.704, 1214.549 82.046 C 1219.527 86.722, 1219.566 89.305, 1215.046 115.014 C 1212.776 127.931, 1210.681 139.287, 1210.391 140.250 C 1209.909 141.854, 1210.953 142, 1222.914 142 C 1235.630 142, 1235.975 141.943, 1236.462 139.750 C 1239.557 125.831, 1245.319 89.832, 1245.386 83.994 C 1245.544 70.459, 1239.065 61.540, 1226.758 58.347 C 1221.673 57.028, 1216.492 56.786, 1212.500 57.680 M 1053 80.144 C 1043.881 82.816, 1037.875 91.904, 1037.260 103.962 C 1036.801 112.967, 1038.812 117.188, 1044.742 119.665 C 1057.165 124.856, 1070.777 113.239, 1071.720 96.643 C 1072.055 90.745, 1071.775 88.943, 1070.111 86.304 C 1066.436 80.477, 1059.896 78.123, 1053 80.144" stroke="none" fill="#fc1c54" fill-rule="evenodd"/></svg>